# xmcd
#
# Track frame offsets:
#	150
#	16950
#	38351
#	57137
#	74968
#	89876
#	107804
#	124479
#	144038
#	159998
#	180288
#	201585
#	223056
#	239428
#	257753
#	278031
#	295656
#	315220
#
# Disc length: 4447
#
# Revision: 2
# Processed by: cddbd v1.5.1PL0 Copyright (c) Steve Scherf et al.
# Submitted via: EasyCDDAExtractor 6.2.0.3
# Normalized: r1:DSETVAR1
#
DISCID=09115d12
DTITLE=Various Artist - Valentine Collection Vol. 01
DYEAR=2003
DGENRE=Ballad
TTITLE0=K-Ci and Jojo - All my life
TTITLE1=Shania Twain Ft. Bryan White - From This Moment on
TTITLE2=Joshua Kadison - Beutiful in my Eyes
TTITLE3=3T - I need you
TTITLE4=Shakin Stevens - Because I love you
TTITLE5=Glenn Mederies - Nothing's gonna change my love
TTITLE6=Atlantic Starr - Always
TTITLE7=Luther Vandross and Mariah Carey - Endless Love
TTITLE8=Peobo Bryson and Roberta Flack - Tonight I celebrate my Love
TTITLE9=Living in a box - Room in your heart
TTITLE10=Richard Marx - Straight from your heart
TTITLE11=Tina A. and Marc A. - I want to spend my life time loving you
TTITLE12=Mariah Carey - Without you
TTITLE13=Elton John - Can you feel the love tonight
TTITLE14=Damage - Forever
TTITLE15=Babara Streisand - Woman in love
TTITLE16=Vanessa Williams - Colourse of the wind
TTITLE17=Stevie B. - Dream about you
EXTD=
EXTT0=
EXTT1=
EXTT2=
EXTT3=
EXTT4=
EXTT5=
EXTT6=
EXTT7=
EXTT8=
EXTT9=
EXTT10=
EXTT11=
EXTT12=
EXTT13=
EXTT14=
EXTT15=
EXTT16=
EXTT17=
PLAYORDER=
